# xmcd CD database file
#
# Track frame offsets:
#	150
#	40087
#	86050
#	140175
#	164765
#	185162
#	250037
#	282162
#
# Disc length: 4590 seconds
#
# Revision: 0
# Processed by: cddbd v1.5.2PL0 Copyright (c) Steve Scherf et al.
# Submitted via: CDex 1.70beta2
#
DISCID=7711ec08
DTITLE=Simon Nabatov - Dancing On The Edge
DYEAR=1990
DGENRE=Jazz
TTITLE0=Monk Me Up
TTITLE1=Promenade
TTITLE2=Blues Nonstop
TTITLE3=Fifth's Dimension
TTITLE4=Now And Zen
TTITLE5=Volker's Folk Song
TTITLE6=Octave Divider
TTITLE7=Dancing On The Edge
EXTD=YEAR: 1990
EXTT0=
EXTT1=
EXTT2=
EXTT3=
EXTT4=
EXTT5=
EXTT6=
EXTT7=
PLAYORDER=
